<svg xmlns="http://www.w3.org/2000/svg" viewBox="0 0 256 256" role="img" aria-label="volcano avatar"><defs><clipPath id="c"><circle cx="128" cy="128" r="128"/></clipPath></defs><g clip-path="url(#c)"><rect width="256" height="256" fill="#bee7df"/><path d="M35 219L93 82h70l58 137z" fill="#2d4f5e"/><path d="M100 84h56l-14 31h-28z" fill="#f8fafc"/><path d="M121 112c19 31-9 57 10 85" stroke="#f97316" stroke-width="24" stroke-linecap="round" fill="none"/><path d="M79 76c20-31 41-42 62-33 27-19 52-15 75 14-49 8-95 14-137 19z" fill="#e0f2fe"/><path d="M0 210c53-31 105-35 156-12 38 17 70 16 100-3v61H0z" fill="#315b6b"/></g></svg>
