<svg xmlns="http://www.w3.org/2000/svg" viewBox="0 0 256 256" role="img" aria-label="cat avatar"><defs><clipPath id="c"><circle cx="128" cy="128" r="128"/></clipPath></defs><g clip-path="url(#c)"><rect width="256" height="256" fill="#75d0dc"/><circle cx="128" cy="140" r="70" fill="#ffb84d"/><path d="M74 89L55 41l52 25m75 23l19-48-52 25" fill="#ffcc6f"/><circle cx="105" cy="131" r="9" fill="#111827"/><circle cx="151" cy="131" r="9" fill="#111827"/><path d="M128 146l12 10-12 10-12-10z" fill="#ef4444"/><path d="M78 156c-23-9-40-11-58-8m60 22c-26 2-42 8-58 20m156-34c23-9 40-11 58-8m-60 22c26 2 42 8 58 20" stroke="#fff4d6" stroke-width="6" stroke-linecap="round"/><path d="M68 65c16-22 42-35 73-35" stroke="#a7e0e7" stroke-width="10" fill="none"/></g></svg>
